<?xml version="1.0" encoding="UTF-8" standalone="no"?>
<!-- Created with Inkscape (http://www.inkscape.org/) -->

<svg
   width="124.25728mm"
   height="125.15309mm"
   viewBox="0 0 124.25728 125.15309"
   version="1.1"
   id="svg5"
   inkscape:version="1.2.2 (732a01da63, 2022-12-09, custom)"
   sodipodi:docname="logo.svg"
   inkscape:export-filename="../733d38e3/logo.png"
   inkscape:export-xdpi="199.616"
   inkscape:export-ydpi="199.616"
   xmlns:inkscape="http://www.inkscape.org/namespaces/inkscape"
   xmlns:sodipodi="http://sodipodi.sourceforge.net/DTD/sodipodi-0.dtd"
   xmlns="http://www.w3.org/2000/svg"
   xmlns:svg="http://www.w3.org/2000/svg">
  <sodipodi:namedview
     id="namedview7"
     pagecolor="#ffffff"
     bordercolor="#999999"
     borderopacity="1"
     inkscape:showpageshadow="0"
     inkscape:pageopacity="0"
     inkscape:pagecheckerboard="0"
     inkscape:deskcolor="#d1d1d1"
     inkscape:document-units="mm"
     showgrid="false"
     inkscape:zoom="0.84096521"
     inkscape:cx="244.95663"
     inkscape:cy="271.7116"
     inkscape:window-width="1366"
     inkscape:window-height="662"
     inkscape:window-x="0"
     inkscape:window-y="0"
     inkscape:window-maximized="1"
     inkscape:current-layer="layer1"
     showguides="true">
    <sodipodi:guide
       position="0,153.62913"
       orientation="1,0"
       id="guide275"
       inkscape:locked="false" />
    <sodipodi:guide
       position="125.02756,153.62913"
       orientation="1,0"
       id="guide277"
       inkscape:locked="false" />
    <sodipodi:guide
       position="-44.493793,124.70815"
       orientation="0,-1"
       id="guide279"
       inkscape:locked="false" />
    <sodipodi:guide
       position="-64.071062,0.12552473"
       orientation="0,-1"
       id="guide281"
       inkscape:locked="false" />
  </sodipodi:namedview>
  <defs
     id="defs2" />
  <g
     inkscape:label="Camada 1"
     inkscape:groupmode="layer"
     id="layer1"
     transform="translate(-49.690097,-79.865819)">
    <rect
       style="fill:#000000;fill-opacity:1;stroke:#ffffff;stroke-width:1.06454;stroke-linecap:round;stroke-linejoin:round;stroke-dasharray:none;stroke-opacity:1;paint-order:stroke fill markers"
       id="rect5856"
       width="129.09152"
       height="129.0787"
       x="47.291821"
       y="77.449448" />
    <g
       id="g543"
       transform="translate(6.0796537,17.062268)">
      <g
         id="g5969"
         transform="translate(25.090329,9.6672885)">
        <rect
           style="fill:#b3b3b3;fill-opacity:0.92133;stroke:#ffffff;stroke-width:0.428648;stroke-linecap:round;stroke-linejoin:round;stroke-dasharray:none;stroke-opacity:1;paint-order:stroke fill markers"
           id="rect2781"
           width="32.402142"
           height="16.11553"
           x="90.351852"
           y="136.65231"
           transform="matrix(0.99999893,0.00146309,-0.03245507,0.9994732,0,0)" />
        <g
           aria-label="POP"
           transform="matrix(1.0331013,0.03160023,0.01742994,0.96849244,0,0)"
           id="text563"
           style="font-size:17.752px;line-height:1.25;font-family:Impact;-inkscape-font-specification:Impact;letter-spacing:0px;word-spacing:0px;stroke:#ffffff;stroke-width:0.416061">
          <path
             d="m 83.012922,139.69091 h 3.675219 q 1.482223,0 2.288344,0.25137 0.832125,0.2427 1.204848,0.6761 0.433398,0.46807 0.55475,1.05749 0.138687,0.66744 0.138687,1.95896 v 1.22219 q 0,1.36954 -0.286043,1.95029 -0.286043,0.61543 -1.005484,0.94481 -0.754113,0.33805 -1.958961,0.33805 h -0.970813 v 5.64285 h -3.640547 z m 3.640547,2.41836 v 3.56254 h 0.286043 q 0.494075,0 0.68477,-0.24271 0.199363,-0.25137 0.199363,-1.01415 v -1.15284 q 0,-0.73678 -0.234035,-0.94481 -0.234035,-0.20803 -0.936141,-0.20803 z"
             style="stroke:#f0ea3f"
             id="path318" />
          <path
             d="m 100.24484,147.90814 q 0,1.06616 -0.0173,1.75093 -0.0173,0.68477 -0.0693,1.24819 -0.10402,0.8668 -0.615431,1.62091 -0.520078,0.7021 -1.421547,1.11817 -0.884132,0.39006 -2.080312,0.39006 -1.126836,0 -2.019637,-0.37273 -0.892801,-0.37272 -1.438883,-1.10083 -0.55475,-0.75411 -0.658765,-1.62091 -0.104016,-0.8668 -0.104016,-3.03379 v -2.39236 q 0,-2.12365 0.104016,-2.99912 0.07801,-0.85812 0.624093,-1.60357 0.502743,-0.71077 1.412879,-1.11817 0.884133,-0.39006 2.080313,-0.39006 1.074828,0 2.028305,0.35539 0.918804,0.38139 1.430215,1.11817 0.56342,0.73678 0.64143,1.60357 0.10401,0.8668 0.10401,3.03379 z m -3.631874,-4.59402 q 0,-1.00549 -0.112684,-1.26553 -0.104015,-0.26003 -0.442066,-0.26003 -0.294711,0 -0.424731,0.20803 -0.173359,0.23403 -0.173359,1.31753 v 6.55298 q 0,1.23085 0.121352,1.50823 0.07801,0.27737 0.442066,0.27737 0.372723,0 0.476738,-0.33805 0.112684,-0.30338 0.112684,-1.56023 z"
             style="stroke:#ff3b5c"
             id="path320" />
          <path
             d="m 101.61438,139.69091 h 3.67522 q 1.48223,0 2.28835,0.25137 0.83212,0.2427 1.20484,0.6761 0.4334,0.46807 0.55475,1.05749 0.13869,0.66744 0.13869,1.95896 v 1.22219 q 0,1.36954 -0.28604,1.95029 -0.28604,0.61543 -1.00549,0.94481 -0.75411,0.33805 -1.95896,0.33805 h -0.97081 v 5.64285 h -3.64055 z m 3.64055,2.41836 v 3.56254 h 0.28604 q 0.49408,0 0.68477,-0.24271 0.19937,-0.25137 0.19937,-1.01415 v -1.15284 q 0,-0.73678 -0.23404,-0.94481 -0.23403,-0.20803 -0.93614,-0.20803 z"
             style="stroke:#35d92e"
             id="path322" />
        </g>
        <g
           aria-label="Life"
           id="text401"
           style="font-size:51.8918px;line-height:1.25;font-family:'Source Serif Pro';-inkscape-font-specification:'Source Serif Pro';letter-spacing:0px;word-spacing:0px;fill:#ffffff;stroke-width:1.21621">
          <path
             d="m 68.065391,126.16183 v -2.2804 H 48.352588 V 88.332502 h -2.280401 v 37.829328 z"
             style="font-family:Sawasdee;-inkscape-font-specification:Sawasdee"
             id="path325" />
          <path
             d="m 72.879571,94.388235 c 0,1.1402 0.912161,2.052361 2.052362,2.052361 1.1402,0 2.027023,-0.912161 2.027023,-2.052361 0,-1.114863 -0.886823,-2.052361 -2.027023,-2.052361 -1.140201,0 -2.052362,0.937498 -2.052362,2.052361 z m 3.192562,31.773595 v -25.69252 h -2.280401 v 25.69252 z"
             style="font-family:Sawasdee;-inkscape-font-specification:Sawasdee"
             id="path327" />
          <path
             d="m 84.382929,126.16183 h 2.229726 v -23.43746 h 6.385124 l 0.760134,-2.25506 h -7.145258 v -2.280406 c 0,-4.459452 3.319251,-8.716201 7.145258,-8.716201 v -1.469592 c -5.194248,0 -9.374984,4.58614 -9.374984,10.185793 v 2.280406 h -2.153712 v 2.25506 h 2.153712 z"
             style="font-family:Sawasdee;-inkscape-font-specification:Sawasdee"
             id="path329" />
          <path
             d="m 99.332227,111.13652 c 0.912163,-5.11824 4.814183,-8.79222 9.298973,-8.79222 4.51012,0 8.43748,3.67398 9.37498,8.79222 z m 21.157053,2.15371 -0.0507,-1.1402 c -0.58277,-6.61317 -5.57432,-12.08613 -11.80741,-12.08613 -6.58783,0 -11.782076,6.08107 -11.782076,13.22633 0,7.19593 5.092896,13.25166 11.680726,13.25166 4.23141,0 8.7162,-2.58445 10.76856,-6.28377 l -2.00169,-1.1402 c -1.77364,3.14189 -5.44762,5.04222 -8.76687,5.04222 -5.11824,0 -9.552352,-4.7635 -9.552352,-10.86991 z"
             style="font-family:Sawasdee;-inkscape-font-specification:Sawasdee"
             id="path331" />
        </g>
        <path
           style="fill:none;stroke:#ffffff;stroke-width:0.865;stroke-linecap:butt;stroke-linejoin:miter;stroke-dasharray:none;stroke-opacity:1"
           d="M 41.019111,131.26602 H 118.92042"
           id="path2727" />
        <path
           sodipodi:type="star"
           style="fill:#ffffff;fill-opacity:1;stroke:#ffffff;stroke-width:0.865;stroke-linecap:round;stroke-linejoin:round;stroke-dasharray:none;stroke-opacity:1;paint-order:stroke fill markers"
           id="path5802"
           inkscape:flatsided="false"
           sodipodi:sides="5"
           sodipodi:cx="97.834206"
           sodipodi:cy="72.737801"
           sodipodi:r1="11.827483"
           sodipodi:r2="6.1193032"
           sodipodi:arg1="0.61019627"
           sodipodi:arg2="1.2385148"
           inkscape:rounded="0"
           inkscape:randomized="0"
           d="m 107.52725,79.515283 -7.696924,-0.992902 -5.446575,5.528409 -1.434174,-7.627032 -6.940912,-3.471628 6.810554,-3.720863 1.156854,-7.673993 5.643329,5.327412 7.655888,-1.27116 -3.32279,7.013385 z"
           inkscape:transform-center-x="1.0662502"
           inkscape:transform-center-y="0.066230391"
           transform="translate(25.522232,17.219621)" />
      </g>
    </g>
  </g>
</svg>
