<?xml version="1.0" encoding="UTF-8" standalone="no"?>
<!-- Created with Inkscape (http://www.inkscape.org/) -->

<svg
   width="438.17346mm"
   height="210.45541mm"
   viewBox="0 0 438.17346 210.45541"
   version="1.1"
   id="svg7629"
   xml:space="preserve"
   inkscape:version="1.2.2 (732a01da63, 2022-12-09, custom)"
   sodipodi:docname="vantagens.svg"
   xmlns:inkscape="http://www.inkscape.org/namespaces/inkscape"
   xmlns:sodipodi="http://sodipodi.sourceforge.net/DTD/sodipodi-0.dtd"
   xmlns="http://www.w3.org/2000/svg"
   xmlns:svg="http://www.w3.org/2000/svg"><sodipodi:namedview
     id="namedview7631"
     pagecolor="#ffffff"
     bordercolor="#999999"
     borderopacity="1"
     inkscape:showpageshadow="0"
     inkscape:pageopacity="0"
     inkscape:pagecheckerboard="0"
     inkscape:deskcolor="#d1d1d1"
     inkscape:document-units="mm"
     showgrid="false"
     inkscape:zoom="0.2102413"
     inkscape:cx="768.16496"
     inkscape:cy="663.52329"
     inkscape:window-width="1366"
     inkscape:window-height="662"
     inkscape:window-x="0"
     inkscape:window-y="0"
     inkscape:window-maximized="1"
     inkscape:current-layer="layer1" /><defs
     id="defs7626"><inkscape:perspective
       sodipodi:type="inkscape:persp3d"
       inkscape:vp_x="31.488594 : 101.88357 : 1"
       inkscape:vp_y="0 : 999.99998 : 0"
       inkscape:vp_z="305.38968 : 98.239654 : 1"
       inkscape:persp3d-origin="167.66253 : 62.180514 : 1"
       id="perspective8541" /></defs><g
     inkscape:label="Camada 1"
     inkscape:groupmode="layer"
     id="layer1"><g
       id="g9345"
       transform="translate(-61.589966,34.959822)"><path
         id="path8609"
         style="color:#000000;fill:#ff5555;-inkscape-stroke:none"
         d="m 131.63486,45.798755 -15.53549,8.969478 -0.19688,-0.113688 -0.19792,0.341581 -5.12011,2.956409 -0.24287,-0.140043 -0.24288,0.420646 -15.999027,9.237679 0.0057,0.36897 0.445451,35.292933 19.242236,11.10837 v 0.52451 h 0.90848 l 13.21469,7.629 35.76371,-20.64836 V 64.300985 l -13.73249,-7.928715 -0.01,-0.01705 -0.01,0.0057 -4.89944,-2.828768 -0.18087,-0.313159 -0.18087,0.104386 z m 0,1.460893 11.76776,6.793383 -14.27097,8.239291 -11.76724,-6.793901 z m 13.03331,7.524088 3.99614,2.306836 -14.272,8.23929 -3.9951,-2.306835 z m -28.56725,1.444356 11.76673,6.793901 -4.25142,2.454631 -11.76724,-6.793901 z m 33.82688,1.592151 11.86853,6.851262 -14.58774,8.057906 -11.55175,-6.669361 z m -39.34385,1.593185 11.76724,6.7939 -13.72578,7.924581 -12.84521,-6.171716 z m 18.54925,4.33927 3.99511,2.306836 -4.25142,2.45463 -3.99511,-2.306836 z m 33.28273,2.021065 v 35.241777 l -14.75569,8.51938 V 73.924687 Z m -28.0231,1.015959 11.52333,6.653857 -4.34444,2.399854 -11.42979,-6.599081 z m -10.77609,0.147794 3.99563,2.306836 -13.24519,7.646562 -4.36097,-2.095479 z m -28.231348,2.23604 12.548068,6.028572 v 34.195332 l -12.126905,-7.00113 z m 33.492008,0.800984 11.40138,6.583061 -12.37651,6.836792 -12.15326,-5.839437 z m 17.51883,4.648295 v 35.641755 l -4.29638,2.48047 V 76.996334 Z m -37.19721,1.187525 4.59403,2.2071 v 34.76274 l -4.59403,-2.65204 z m 31.63683,1.884639 v 35.779731 l -12.17755,7.03058 V 84.42172 Z m -25.77724,0.930693 12.33568,5.92677 v 36.079968 l -12.33568,-7.12153 z" /><path
         id="path8656"
         style="color:#000000;fill:#ff5555;stroke-linecap:round;-inkscape-stroke:none"
         d="m 98.006888,37.881266 c -0.818871,-0.0078 -1.620018,0.05531 -2.398303,0.198954 -2.075426,0.383056 -3.991416,1.414229 -5.370731,3.131075 -1.379316,1.716846 -2.211797,4.036111 -2.496489,6.933427 -0.567616,5.776661 1.61413,9.873744 5.201233,12.13466 3.587105,2.260916 8.276442,2.937917 13.130982,3.23081 4.85454,0.292894 9.91222,0.153875 14.1211,0.415996 0.0732,0.0046 0.14388,0.01061 0.21652,0.0155 -0.85467,0.139134 -1.71094,0.306489 -2.56005,0.505913 -4.44362,1.043646 -8.74485,2.932505 -11.32851,6.381006 -1.69234,2.25884 -2.25216,4.881631 -2.80241,7.222298 -0.55026,2.340665 -1.09498,4.381183 -2.25206,5.769673 -6.078924,7.294718 -16.528264,5.90695 -21.572321,-1.642793 a 1.5325,1.5325 0 0 0 -2.124935,-0.423747 1.5325,1.5325 0 0 0 -0.422196,2.124935 c 6.060217,9.070691 19.146025,10.69889 26.474862,1.904276 1.75875,-2.110501 2.3279,-4.678446 2.88097,-7.031095 0.55308,-2.35265 1.08703,-4.50542 2.27118,-6.085933 1.90189,-2.53854 5.52429,-4.283033 9.5746,-5.234306 3.63559,-0.853871 7.56444,-1.082258 10.65827,-0.926042 a 1.5324999,1.5324999 0 0 0 1.79265,0.230477 c 0.71896,-0.400565 1.32386,-0.431504 2.16421,-0.274919 0.84035,0.156585 1.84549,0.560987 2.97036,0.962732 5.9398,2.121352 8.71832,5.447745 11.41016,9.109522 2.69184,3.661776 5.25255,7.743548 10.44381,10.345621 4.50389,2.257543 10.04873,2.383082 14.62856,0.546737 4.57985,-1.836345 8.24446,-5.907907 8.24446,-11.638566 a 1.5324999,1.5324999 0 0 0 -1.53324,-1.531173 1.5324999,1.5324999 0 0 0 -1.53324,1.531173 c 0,4.476221 -2.60189,7.302532 -6.31848,8.792745 -3.71658,1.490211 -8.49799,1.371688 -12.11502,-0.441317 -4.40784,-2.209397 -6.57107,-5.644466 -9.34775,-9.421647 -2.77668,-3.77718 -6.21053,-7.809291 -12.84779,-10.17974 -0.0982,-0.03508 -0.20219,-0.07471 -0.30231,-0.111621 0.95936,-0.145434 2.00343,-0.254556 3.11867,-0.324012 4.20888,-0.26212 9.26863,-0.123101 14.12317,-0.415995 4.85454,-0.292893 9.54389,-0.969895 13.13098,-3.23081 3.58711,-2.260917 5.76884,-6.357999 5.20123,-12.13466 -0.28469,-2.897316 -1.11717,-5.218648 -2.49648,-6.935494 -1.37931,-1.716847 -3.29531,-2.745952 -5.37074,-3.129008 -1.0377,-0.191529 -2.11575,-0.241701 -3.22305,-0.169499 -3.32191,0.216606 -6.91346,1.536413 -10.51926,3.453019 -8.24546,4.382748 -16.63781,11.996123 -20.69228,19.500619 -4.01746,-7.561334 -12.4763,-15.259254 -20.78632,-19.676319 -3.60581,-1.916607 -7.19736,-3.234863 -10.519256,-3.451469 -0.276825,-0.01805 -0.551798,-0.0284 -0.824756,-0.03101 z m -0.353983,3.381189 c 0.305424,-0.0023 0.622133,0.0095 0.948262,0.03462 2.609033,0.201311 5.839903,1.26932 9.169463,3.039091 7.18293,3.817978 14.55279,10.760012 18.4397,17.015499 -1.77257,-0.428334 -3.72142,-0.65302 -5.80688,-0.782898 -4.44304,-0.276704 -9.48097,-0.135695 -14.12679,-0.415996 -4.64582,-0.280299 -8.858992,-1.029626 -11.538823,-2.718697 -2.67983,-1.68907 -4.129615,-4.066601 -3.648873,-8.959143 0.239489,-2.437285 0.907626,-4.081042 1.771469,-5.156274 0.863841,-1.075232 1.935529,-1.665231 3.359484,-1.928048 0.444986,-0.08213 0.923947,-0.124364 1.432988,-0.128157 z m 64.874075,0.174149 c 0.50904,0.0038 0.98852,0.04603 1.4335,0.128158 1.42396,0.262815 2.49512,0.854366 3.35897,1.929598 0.86384,1.075232 1.53043,2.718989 1.76992,5.156274 0.48074,4.892542 -0.96697,7.268006 -3.64681,8.957076 -2.67982,1.689071 -6.89301,2.438398 -11.53883,2.718697 -4.64581,0.280301 -9.68581,0.139292 -14.12885,0.415996 -2.08541,0.129874 -4.03228,0.3551 -5.80481,0.783414 3.88723,-6.255037 11.25743,-13.198395 18.4397,-17.016015 3.32955,-1.769772 6.56043,-2.837782 9.16946,-3.039091 0.32613,-0.02516 0.64232,-0.03638 0.94775,-0.03411 z" /><path
         sodipodi:type="star"
         style="fill:#ff5555;fill-opacity:0.999298;stroke:#ff5555;stroke-width:1.265;stroke-linecap:round;stroke-linejoin:round;stroke-miterlimit:4.6;stroke-dasharray:none;paint-order:stroke fill markers"
         id="path9298"
         inkscape:flatsided="false"
         sodipodi:sides="4"
         sodipodi:cx="154.70901"
         sodipodi:cy="16.010563"
         sodipodi:r1="31.657234"
         sodipodi:r2="16.37882"
         sodipodi:arg1="1.2328578"
         sodipodi:arg2="2.018256"
         inkscape:rounded="0"
         inkscape:randomized="0"
         d="M 165.20475,45.877268 147.62228,30.776875 124.84231,26.506295 139.9427,8.9238289 144.21328,-13.856142 161.79575,1.2442513 184.57572,5.514831 169.47533,23.097297 Z"
         transform="matrix(0.54044343,0,0,0.54044343,73.730211,22.560308)" /><path
         sodipodi:type="star"
         style="fill:#ff5555;fill-opacity:0.999298;stroke:#ff5555;stroke-width:1.265;stroke-linecap:round;stroke-linejoin:round;stroke-miterlimit:4.6;stroke-dasharray:none;paint-order:stroke fill markers"
         id="path9298-6"
         inkscape:flatsided="false"
         sodipodi:sides="4"
         sodipodi:cx="154.70901"
         sodipodi:cy="16.010563"
         sodipodi:r1="31.657234"
         sodipodi:r2="16.37882"
         sodipodi:arg1="1.2328578"
         sodipodi:arg2="2.018256"
         inkscape:rounded="0"
         inkscape:randomized="0"
         d="M 165.20475,45.877268 147.62228,30.776875 124.84231,26.506295 139.9427,8.9238289 144.21328,-13.856142 161.79575,1.2442513 184.57572,5.514831 169.47533,23.097297 Z"
         transform="matrix(0.3770451,0,0,0.3770451,33.775886,66.350778)" /><path
         sodipodi:type="star"
         style="fill:#ff5555;fill-opacity:0.999298;stroke:#ff5555;stroke-width:1.265;stroke-linecap:round;stroke-linejoin:round;stroke-miterlimit:4.6;stroke-dasharray:none;paint-order:stroke fill markers"
         id="path9298-2"
         inkscape:flatsided="false"
         sodipodi:sides="4"
         sodipodi:cx="154.70901"
         sodipodi:cy="16.010563"
         sodipodi:r1="31.657234"
         sodipodi:r2="16.37882"
         sodipodi:arg1="1.2328578"
         sodipodi:arg2="2.018256"
         inkscape:rounded="0"
         inkscape:randomized="0"
         d="M 165.20475,45.877268 147.62228,30.776875 124.84231,26.506295 139.9427,8.9238289 144.21328,-13.856142 161.79575,1.2442513 184.57572,5.514831 169.47533,23.097297 Z"
         transform="matrix(0.25476078,0,0,0.25476078,113.36559,115.50025)" /></g><g
       id="g1589"
       transform="translate(-26.206575,4.7172918)"><path
         style="fill:none;stroke:#ff5555;stroke-width:1.05604;stroke-linecap:butt;stroke-linejoin:miter;stroke-dasharray:none;stroke-opacity:1"
         d="m 199.09268,63.0074 c 1.95069,-1.60689 1.60108,1.41168 2.90329,2.36729 2.78159,2.04132 6.24101,-1.13385 6.7887,-1.60717 0.78011,-0.6742 -0.18738,-1.66489 -0.48659,-5.00983 -0.12588,-1.4072 2.35757,-0.13161 4.10902,0.0256 3.48686,0.31304 6.33572,-3.56338 9.25428,-2.98253 0.20514,0.0409 0.1427,0.89041 0.10059,2.01165 -0.0114,0.30236 1.75886,0.58164 1.75608,0.91298 -0.0152,1.81716 -2.36869,3.96717 -1.02451,4.60167 0.61797,0.29171 1.72136,1.16515 2.73651,1.20079 3.69792,0.12978 9.14565,-1.82372 12.10344,-1.82372 1.51542,0 2.51359,0.84159 2.79282,0.72983 1.83475,-0.73434 5.96633,-5.66786 6.70936,-5.70205 1.36703,-0.0629 2.94218,3.28044 3.31717,4.33462 2.39734,6.73972 1.07936,2.40631 -5.84773,7.95142 -0.19749,0.1581 0.62555,0.13861 2.05913,0.059 1.12832,-0.0628 2.31695,-2.13246 4.00183,-2.21252 3.94833,-0.18768 9.1939,1.70383 12.52855,2.47144 3.43576,0.79087 7.04319,2.91667 10.69808,3.89189 3.64765,0.9733 4.63548,-0.45659 7.91674,0.14813 2.24856,0.4144 3.28009,2.85833 5.85234,4.19407 2.85199,1.48102 5.79955,-0.82028 6.58092,4.3085 0.17446,1.14509 -1.78066,7.46911 -4.88498,8.23509 -2.97692,0.73456 -5.06801,2.65149 -6.32632,4.90127 -1.20585,2.15596 0.33516,5.57617 -0.5976,7.80691 -0.49008,1.17202 -4.29959,12.59993 -5.21848,13.72204 -2.12636,2.59666 -15.06737,2.86236 -18.72497,6.14167 -1.32305,1.1862 -3.30718,1.38325 -3.76251,3.44771 -0.17856,0.80957 0.53671,3.40288 0.42984,4.34476 -0.34288,3.02148 -2.10966,3.15924 -3.83171,5.72103 -1.19797,1.78211 -1.3831,3.83841 -4.14185,5.13554 -3.98747,1.87485 0.21505,-0.58199 2.29902,-3.23301 1.00529,-1.27881 -0.42146,-0.44652 -1.07924,-1.0862 -0.58395,-0.56788 1.54051,-1.77031 -1.20076,-0.66049 -0.51944,0.2103 0.64565,0.90423 0.38762,1.27401 -1.18686,1.70076 -2.22554,2.53938 -2.71065,4.50997 -0.36537,1.48429 -0.20542,3.86585 -2.92626,3.67604 -0.56739,-0.0396 0.90532,-2.30918 0.0565,-2.60385 -1.67722,-0.58226 -2.63262,-2.00525 -4.27831,-2.81502 -3.75632,-1.84829 -4.97077,-2.57353 -7.1555,-4.04109 -0.61785,-0.41504 1.75575,-2.9506 4.88744,-4.94751 1.48588,-0.94748 3.49083,-1.11287 4.78099,-2.0999 0.59326,-0.45386 0.61461,-2.29506 -0.28757,-3.64624 -0.35541,-0.53227 -1.69395,-0.41998 -1.92743,-0.97654 -0.38159,-0.90973 0.58162,-2.20402 0.39859,-2.6363 -0.4629,-1.09323 -2.52415,0.20356 -3.17646,-0.34776 -0.73649,-0.62245 -0.084,-3.03275 -0.94349,-3.24495 -2.51423,-0.62076 -5.28605,-0.12269 -6.7432,-2.22973 -0.65684,-0.94977 1.531,-8.30609 -0.52558,-10.79844 -2.14778,-2.60289 -4.53266,-0.40897 -6.66143,-3.0221 -0.35049,-0.43023 -0.67812,-2.7757 -1.20505,-5.07253 -0.56155,-2.4478 -0.85231,0.55693 -2.13548,0.59686 -0.7505,0.0234 -3.57716,-2.83938 -4.55614,-2.78915 -2.33367,0.1197 -5.04547,-0.17351 -6.06434,-1.18754 -1.62604,-1.61829 -0.86655,-4.362 -1.95342,-4.76763 -1.6286,-0.60782 -3.53307,0.68633 -5.97476,1.6859 -2.04896,0.83879 -4.47622,1.47015 -7.43623,0.59608 -1.58131,-0.46695 -0.5484,-2.77034 -0.3228,-3.64001 0.21613,-0.83311 -1.07738,0.34797 -1.65008,0.86001 -1.38646,1.23957 -4.37594,2.71767 -8.33667,-4.07676 -2.65402,-4.5528 9.46987,-9.88108 11.48479,-7.56015 1.12107,-2.14401 0.918,-4.68111 2.22453,-6.79737 1.33617,-2.16429 -2.00449,-2.31474 -2.23237,-4.01537 -0.0818,-0.6108 3.33524,0.2037 3.43763,-0.99285 0.0183,-0.21328 -2.68419,-1.50903 -2.17147,-2.41027 3.08248,-0.49484 2.67157,1.41508 5.90613,-0.82715 z"
         id="path10813"
         sodipodi:nodetypes="csssssssssscssssssssssssssssssssssssssssssssssssssssssssssssccsscc" /><path
         id="path10815"
         style="fill:#ff5555;fill-opacity:1;stroke:none;stroke-width:0.200755;stroke-linecap:butt;stroke-linejoin:miter;stroke-dasharray:none;stroke-opacity:1"
         d="m 203.61902,82.89567 0.76689,2.58698 h 15.74765 c 1.26557,0 2.28417,1.01899 2.28417,2.28456 0,1.26556 -1.0186,2.28455 -2.28417,2.28455 h -14.3932 l 0.66464,2.24169 h 5.95502 c 1.26557,0 2.28456,1.019 2.28456,2.28455 0,1.26557 -1.01899,2.28416 -2.28456,2.28416 h -4.60057 l 0.75824,2.557894 h 11.28395 c 1.26557,0 2.28455,1.018986 2.28455,2.284546 0,1.26556 -1.01898,2.28416 -2.28455,2.28416 h -9.92989 l 1.86729,6.29836 4.84755,-0.006 a 6.7243127,5.9863332 0 0 1 6.62713,-4.99346 6.7243127,5.9863332 0 0 1 6.62635,4.9789 l 4.53883,-0.005 a 6.7243127,5.9863332 0 0 1 6.62477,-4.97419 6.7243127,5.9863332 0 0 1 6.6236,4.95964 l 23.96638,-0.0264 a 6.7243127,5.9863332 0 0 1 6.6177,-4.93329 6.7243127,5.9863332 0 0 1 6.61612,4.91874 l 9.16064,-0.0102 -0.67645,-3.0424 c -1.92769,-5.92218 -7.88026,-12.64136 -14.20914,-17.7459 l -21.21187,0.3976 6.95867,17.22285 h -3.91115 l -11.89628,-23.4921 z m 75.08039,8.97894 c 3.74212,2.59289 5.72574,5.7153 7.33504,8.95023 h -17.18234 l -4.97654,-8.62027 z" /><ellipse
         style="fill:#ff5555;fill-opacity:1;stroke:none;stroke-width:0.556967;stroke-linecap:round;stroke-linejoin:round;stroke-miterlimit:4.6;stroke-dasharray:none;paint-order:stroke fill markers"
         id="path10871-9"
         cx="223.21356"
         cy="111.2746"
         rx="5.5718055"
         ry="4.9603109" /><ellipse
         style="fill:#ff5555;fill-opacity:1;stroke:none;stroke-width:0.556967;stroke-linecap:round;stroke-linejoin:round;stroke-miterlimit:4.6;stroke-dasharray:none;paint-order:stroke fill markers"
         id="path10871-9-2"
         cx="241.00386"
         cy="111.2746"
         rx="5.5718055"
         ry="4.9603109" /><ellipse
         style="fill:#ff5555;fill-opacity:1;stroke:none;stroke-width:0.556967;stroke-linecap:round;stroke-linejoin:round;stroke-miterlimit:4.6;stroke-dasharray:none;paint-order:stroke fill markers"
         id="path10871-9-2-0"
         cx="278.21143"
         cy="111.2746"
         rx="5.5718055"
         ry="4.9603109" /><rect
         style="fill:#ff5555;fill-opacity:1;stroke:none;stroke-width:1.0919;stroke-linecap:round;stroke-linejoin:round;stroke-miterlimit:4.6;stroke-dasharray:none;paint-order:stroke fill markers"
         id="rect11022-6"
         width="31.556156"
         height="3.7271833"
         x="189.75089"
         y="85.903633"
         ry="1.8635917" /><rect
         style="fill:#ff5555;fill-opacity:1;stroke:none;stroke-width:1.10326;stroke-linecap:round;stroke-linejoin:round;stroke-miterlimit:4.6;stroke-dasharray:none;paint-order:stroke fill markers"
         id="rect11022-9-0"
         width="31.490116"
         height="3.7902727"
         x="182.01067"
         y="92.682762"
         ry="1.8951364" /><rect
         style="fill:#ff5555;fill-opacity:1;stroke:none;stroke-width:1.10308;stroke-linecap:round;stroke-linejoin:round;stroke-miterlimit:4.6;stroke-dasharray:none;paint-order:stroke fill markers"
         id="rect11022-9-3-6"
         width="31.439886"
         height="3.8179457"
         x="189.47725"
         y="99.795494"
         ry="1.9089729" /></g><path
       id="path325"
       style="color:#000000;fill:#ff5555;stroke-linecap:round;-inkscape-stroke:none"
       d="M 348.22784 53.218974 C 347.51771 53.214987 346.8085 53.23401 346.10342 53.277368 C 341.87298 53.537503 337.79732 54.667391 334.64056 56.896269 C 331.03252 59.44378 328.90334 63.616322 329.19128 69.111544 C 328.03885 68.280383 326.74591 67.675213 325.31813 67.496139 C 322.91968 67.19532 320.33397 67.729063 318.08394 68.968917 C 315.83393 70.208771 313.90792 72.179709 312.96694 74.783032 C 312.1587 77.019111 312.32063 79.753244 313.33023 82.699345 C 309.22162 82.629665 306.0686 84.879375 304.33595 88.275232 C 302.39683 92.075718 301.91805 97.108734 302.72829 101.89456 C 303.53852 106.68038 305.65101 111.25722 309.20903 113.99046 C 312.22454 116.30694 316.33424 117.00723 321.11115 115.47667 C 320.36288 117.1037 319.94984 118.74059 320.20526 120.27948 C 320.59187 122.60881 321.98737 124.63673 323.89444 126.0936 C 327.70858 129.00733 333.72411 129.7247 338.46461 125.96079 A 1.0155801 1.0155801 0 0 0 338.62894 124.53503 A 1.0155801 1.0155801 0 0 0 337.20112 124.37122 C 333.21288 127.53786 328.25842 126.87093 325.12899 124.48026 C 323.56427 123.28492 322.49493 121.68071 322.20721 119.9472 C 321.91949 118.21368 322.35959 116.30513 324.04895 114.30258 L 322.83197 112.73265 C 317.40323 115.34465 313.43066 114.67419 310.44513 112.38074 C 307.45962 110.08729 305.47784 105.97039 304.73024 101.55452 C 303.98264 97.138658 304.48247 92.460927 306.14669 89.199207 C 307.81092 85.937485 310.39405 84.064577 314.47073 84.699223 L 316.32436 84.988094 L 315.55283 83.277087 C 314.13596 80.134751 314.12571 77.552763 314.8769 75.474463 C 315.62811 73.396164 317.18114 71.785803 319.06425 70.748136 C 320.94735 69.710469 323.15006 69.27116 325.06646 69.511519 C 326.98286 69.751878 328.57468 70.619264 329.5158 72.206962 L 331.38494 71.49021 C 330.12428 65.136399 332.15963 61.133784 335.81258 58.554565 C 339.46552 55.975348 344.89441 54.956895 350.21687 55.324272 C 355.53931 55.691648 360.72973 57.450584 363.85531 60.056799 C 365.4181 61.359906 366.45793 62.846888 366.85719 64.466866 C 367.25645 66.086844 367.05281 67.884772 365.92753 69.966789 L 367.41788 71.271619 C 371.55678 68.269273 375.27299 67.602067 378.47251 68.250098 C 381.67201 68.898128 384.40896 70.915738 386.39037 73.523678 C 388.37179 76.131618 389.56657 79.319885 389.70903 82.121086 C 389.8515 84.922286 389.00655 87.235889 387.01152 88.544983 L 385.71289 89.398678 L 387.01565 90.246171 C 392.62394 93.897899 393.45006 98.869572 391.83396 102.86917 C 390.21788 106.86878 386.06834 109.79931 381.17363 109.0197 L 378.79083 108.6404 L 380.18351 110.60927 C 381.53142 112.51502 381.7508 114.36801 381.28525 116.1619 C 380.81969 117.95579 379.60634 119.68592 377.98623 121.04274 C 376.36611 122.39956 374.35161 123.37182 372.39846 123.71493 C 370.44531 124.05805 368.591 123.78818 367.11144 122.75375 L 365.81643 121.84786 L 365.52911 123.40229 C 365.21495 125.10708 364.05762 126.15063 362.5665 126.50959 C 361.07537 126.86854 359.27024 126.48735 357.78695 125.05076 A 1.0155801 1.0155801 0 0 0 356.35138 125.07402 A 1.0155801 1.0155801 0 0 0 356.37515 126.50959 C 358.32734 128.40027 360.86161 129.00926 363.04296 128.48415 C 364.86242 128.04616 366.39752 126.74651 367.13883 124.90245 C 368.89245 125.73181 370.82368 126.05525 372.74986 125.71687 C 375.10551 125.30304 377.40502 124.17755 379.28899 122.59975 C 381.17298 121.02195 382.65329 118.97918 383.25206 116.67195 C 383.72265 114.85866 383.38267 112.89823 382.50585 110.99219 C 387.62587 111.07249 391.96402 107.96811 393.71654 103.63088 C 395.53903 99.120471 394.36663 93.449546 389.06617 89.388859 C 391.02644 87.549124 391.88282 84.858242 391.73836 82.017733 C 391.57117 78.730323 390.22918 75.218535 388.00784 72.294812 C 385.7865 69.371089 382.65438 67.024986 378.87507 66.259521 C 375.7904 65.634751 372.30451 66.184069 368.68344 68.150362 C 369.03149 66.702207 369.1523 65.287482 368.8302 63.980591 C 368.30415 61.846198 366.96351 60.005402 365.15601 58.498238 C 361.54099 55.483911 356.02395 53.689681 350.35743 53.298556 C 349.64911 53.249666 348.93797 53.222961 348.22784 53.218974 z M 402.35735 114.52169 L 373.54671 152.62686 L 366.13269 141.49627 L 364.33022 142.69517 L 373.43354 156.36307 L 404.08593 115.82601 L 402.35735 114.52169 z M 421.95512 115.05861 L 393.14241 153.16223 L 385.72839 142.03319 L 383.92799 143.2326 L 393.03131 156.9005 L 423.68163 116.36344 L 421.95512 115.05861 z M 337.96955 115.58933 A 1.0155801 1.0155801 0 0 0 337.24815 115.88078 A 1.0155801 1.0155801 0 0 0 337.23626 117.31635 C 339.24059 119.35696 339.49639 119.79077 340.52133 123.20902 C 341.76727 127.36439 342.5223 132.82286 342.41786 138.06237 C 342.31342 143.30189 341.32696 148.32275 339.3028 151.59591 C 337.22763 154.95162 333.37304 156.79659 329.65223 156.74806 A 1.0155801 1.0155801 0 0 0 328.62284 157.75006 A 1.0155801 1.0155801 0 0 0 329.62484 158.77946 C 334.02943 158.83696 338.54227 156.68578 341.02931 152.66407 C 343.37689 148.8679 344.33835 143.56357 344.44719 138.10372 C 344.55602 132.64385 343.78992 127.03046 342.46902 122.62507 C 341.42085 119.12938 340.76118 118.00769 338.68579 115.89473 A 1.0155801 1.0155801 0 0 0 337.96955 115.58933 z M 356.47075 115.58984 A 1.0155801 1.0155801 0 0 0 355.75606 115.89473 C 353.68067 118.00769 353.02098 119.12937 351.97283 122.62507 C 350.65193 127.03046 349.88323 132.64385 349.99207 138.10372 C 350.1009 143.56357 351.06237 148.8679 353.40995 152.66407 C 355.89701 156.68578 360.40986 158.83692 364.81442 158.77946 A 1.0155801 1.0155801 0 0 0 365.8185 157.75006 A 1.0155801 1.0155801 0 0 0 364.7891 156.74806 C 361.06833 156.79655 357.21165 154.95162 355.13646 151.59591 C 353.11231 148.32275 352.12791 143.30189 352.02347 138.06237 C 351.91903 132.82286 352.67199 127.36439 353.91793 123.20902 C 354.94286 119.79078 355.19868 119.35696 357.203 117.31635 A 1.0155801 1.0155801 0 0 0 357.19163 115.88078 A 1.0155801 1.0155801 0 0 0 356.47075 115.58984 z " /><text
       xml:space="preserve"
       style="font-size:11.2889px;line-height:1.25;font-family:'Source Serif Pro';-inkscape-font-specification:'Source Serif Pro';letter-spacing:0px;word-spacing:0px;stroke-width:0.264583"
       x="20.587858"
       y="181.93559"
       id="text1645"><tspan
         sodipodi:role="line"
         id="tspan1643"
         style="stroke-width:0.264583"></tspan></text></g></svg>
