<?xml version="1.0" encoding="UTF-8" standalone="no"?>
<!-- Created with Inkscape (http://www.inkscape.org/) -->

<svg
   width="512"
   height="512"
   viewBox="0 0 135.46666 135.46667"
   version="1.1"
   id="svg1726"
   inkscape:version="1.2.2 (732a01da63, 2022-12-09, custom)"
   sodipodi:docname="ambiental.svg"
   xmlns:inkscape="http://www.inkscape.org/namespaces/inkscape"
   xmlns:sodipodi="http://sodipodi.sourceforge.net/DTD/sodipodi-0.dtd"
   xmlns="http://www.w3.org/2000/svg"
   xmlns:svg="http://www.w3.org/2000/svg">
  <sodipodi:namedview
     id="namedview1728"
     pagecolor="#ffffff"
     bordercolor="#999999"
     borderopacity="1"
     inkscape:showpageshadow="0"
     inkscape:pageopacity="0"
     inkscape:pagecheckerboard="0"
     inkscape:deskcolor="#d1d1d1"
     inkscape:document-units="mm"
     showgrid="false"
     inkscape:zoom="0.2973261"
     inkscape:cx="316.15119"
     inkscape:cy="482.63506"
     inkscape:window-width="1366"
     inkscape:window-height="662"
     inkscape:window-x="0"
     inkscape:window-y="0"
     inkscape:window-maximized="1"
     inkscape:current-layer="layer1" />
  <defs
     id="defs1723" />
  <g
     inkscape:label="Camada 1"
     inkscape:groupmode="layer"
     id="layer1">
    <path
       id="path325"
       style="color:#000000;fill:#ffffff;stroke-width:0.954459;stroke-linecap:round;-inkscape-stroke:none;fill-opacity:1"
       d="m 55.732699,16.114239 c -0.661117,-0.0039 -1.321378,0.01471 -1.977794,0.05714 -3.938456,0.254549 -7.732816,1.360179 -10.671697,3.541203 -3.359015,2.492816 -5.341239,6.575775 -5.073173,11.953015 -1.07289,-0.813316 -2.276591,-1.405493 -3.605827,-1.580723 -2.232909,-0.29436 -4.640155,0.227924 -6.734888,1.441158 -2.094716,1.213234 -3.887793,3.141857 -4.763827,5.689287 -0.752456,2.18807 -0.601702,4.863502 0.338216,7.746351 -3.825035,-0.06818 -6.760435,2.133225 -8.373498,5.456174 -1.805283,3.71889 -2.251018,8.643848 -1.4967,13.326927 0.754308,4.683069 2.720995,9.161644 6.033442,11.836202 2.80738,2.266745 6.63343,2.952001 11.08064,1.454301 -0.696625,1.592098 -1.081157,3.193845 -0.843366,4.699695 0.359926,2.27932 1.659109,4.2637 3.434554,5.689292 3.550889,2.851172 9.15123,3.553141 13.564542,-0.129959 a 0.94548514,0.99377575 0 0 0 0.152988,-1.395149 0.94548514,0.99377575 0 0 0 -1.329272,-0.160293 c -3.712973,3.098652 -8.325478,2.446042 -11.238916,0.106699 -1.456724,-1.169676 -2.452258,-2.739444 -2.72012,-4.435736 -0.267862,-1.696302 0.141863,-3.563876 1.714624,-5.523431 l -1.132985,-1.536223 c -5.05405,2.55592 -8.752435,1.899854 -11.531905,-0.344356 -2.779451,-2.24421 -4.624449,-6.27272 -5.32045,-10.593782 -0.696001,-4.321059 -0.230669,-8.898359 1.318687,-12.090051 1.549366,-3.191693 3.954209,-5.024389 7.749518,-4.403369 l 1.725693,0.282669 -0.718279,-1.674272 c -1.319078,-3.074871 -1.328621,-5.601424 -0.629278,-7.635103 0.699362,-2.033678 2.145202,-3.609465 3.898341,-4.624853 1.753129,-1.015389 3.803809,-1.445266 5.58794,-1.210068 1.78413,0.235199 3.266084,1.083962 4.142248,2.637573 l 1.740132,-0.701364 c -1.173649,-6.217395 0.721222,-10.134074 4.122046,-12.657919 3.400816,-2.523841 8.455006,-3.520428 13.410112,-3.160938 4.955087,0.359488 9.787266,2.08066 12.697119,4.63092 1.454927,1.27513 2.422989,2.730186 2.794692,4.315384 0.371703,1.585197 0.182118,3.344524 -0.865495,5.38184 l 1.387486,1.276815 c 3.853235,-2.937885 7.312953,-3.590767 10.291644,-2.956649 2.978671,0.634116 5.526718,2.608409 7.371372,5.160357 1.844663,2.551948 2.95698,5.671764 3.089607,8.412823 0.132637,2.741059 -0.653995,5.004989 -2.511329,6.285977 l -1.208999,0.835366 1.212844,0.829297 c 5.221209,3.573326 5.990311,8.438258 4.485753,12.351989 -1.504539,3.91374 -5.36768,6.781352 -9.924559,6.01848 l -2.21834,-0.371157 1.296558,1.926599 c 1.254878,1.864833 1.459116,3.678041 1.025698,5.433416 -0.433427,1.755375 -1.563032,3.448359 -3.071322,4.776049 -1.5083,1.327689 -3.38376,2.279075 -5.202105,2.614819 -1.818344,0.335753 -3.54467,0.07173 -4.922111,-0.940544 l -1.205629,-0.886441 -0.26749,1.521057 c -0.292476,1.668188 -1.369928,2.689334 -2.758131,3.040586 -1.388213,0.351244 -3.068754,-0.02173 -4.449668,-1.427509 a 0.94548514,0.99377575 0 0 0 -1.336487,0.0228 0.94548514,0.99377575 0 0 0 0.02216,1.404749 c 1.817451,1.850087 4.176806,2.446002 6.2076,1.932166 1.693882,-0.428587 3.12303,-1.700334 3.813175,-3.504801 1.632586,0.811554 3.430523,1.128049 5.223759,0.796934 2.193064,-0.404945 4.333862,-1.506271 6.087801,-3.050196 1.753958,-1.543925 3.132098,-3.542836 3.689541,-5.800531 0.43811,-1.774359 0.121595,-3.692698 -0.694707,-5.557816 4.766638,0.07858 8.805371,-2.959153 10.436933,-7.203264 1.696701,-4.413575 0.605221,-9.962746 -4.329404,-13.936251 1.824973,-1.800236 2.622247,-4.433345 2.487757,-7.212869 -0.155651,-3.21683 -1.405017,-6.65322 -3.473041,-9.514171 -2.068024,-2.860952 -4.983967,-5.156684 -8.50243,-5.905715 -2.871767,-0.611356 -6.117062,-0.07383 -9.488207,1.850245 0.324027,-1.417063 0.436499,-2.801414 0.13663,-4.080247 C 74.42338,24.556276 73.175271,22.755001 71.492524,21.280196 68.127011,18.330586 62.990755,16.574878 57.715336,16.19215 57.055904,16.14431 56.393847,16.11819 55.73273,16.11428 Z m 50.393511,59.986556 -26.82214,37.287065 -6.902308,-10.89163 -1.678064,1.17317 8.475013,13.37446 28.536779,-39.666749 z m 18.24514,0.525393 -26.824067,37.285552 -6.902308,-10.89011 -1.676138,1.17367 8.475014,13.37444 28.534849,-39.666737 z m -78.188918,0.519325 a 0.94548514,0.99377575 0 0 0 -0.671609,0.285193 0.94548514,0.99377575 0 0 0 -0.01108,1.404748 c 1.865992,1.996798 2.104137,2.421295 3.058336,5.766155 1.159945,4.066155 1.862864,9.407433 1.765632,14.534451 -0.09723,5.12703 -1.015606,10.0401 -2.90006,13.24298 -1.931942,3.28366 -5.52049,5.08903 -8.984491,5.04153 a 0.94548514,0.99377575 0 0 0 -0.958342,0.9805 0.94548514,0.99377575 0 0 0 0.932843,1.00729 c 4.100586,0.0562 8.301952,-2.04873 10.617337,-5.98409 2.185551,-3.71467 3.080652,-8.90512 3.181979,-14.247748 0.101319,-5.342647 -0.611905,-10.835519 -1.841637,-15.146326 -0.975826,-3.420637 -1.589966,-4.518245 -3.522113,-6.58584 a 0.94548514,0.99377575 0 0 0 -0.666805,-0.298843 z m 17.224254,4.98e-4 a 0.94548514,0.99377575 0 0 0 -0.665362,0.298345 c -1.932148,2.067595 -2.546306,3.165192 -3.522113,6.58584 -1.229732,4.310807 -1.945377,9.803679 -1.844049,15.146326 0.101319,5.342628 0.996428,10.533078 3.181979,14.247748 2.315404,3.93536 6.516779,6.04032 10.617338,5.98409 a 0.94548514,0.99377575 0 0 0 0.934779,-1.00729 0.94548514,0.99377575 0 0 0 -0.958351,-0.9805 c -3.463964,0.0475 -7.054458,-1.75787 -8.986419,-5.04153 -1.884444,-3.20288 -2.800901,-8.11595 -2.898132,-13.24298 -0.09723,-5.127018 0.603759,-10.468296 1.763705,-14.534451 0.954189,-3.344851 1.192353,-3.769357 3.058335,-5.766155 a 0.94548514,0.99377575 0 0 0 -0.01061,-1.404748 0.94548514,0.99377575 0 0 0 -0.671125,-0.284695 z" />
  </g>
</svg>
