<?xml version="1.0" encoding="UTF-8" standalone="no"?>
<!-- Created with Inkscape (http://www.inkscape.org/) -->

<svg
   width="512"
   height="512"
   viewBox="0 0 135.46666 135.46667"
   version="1.1"
   id="svg1726"
   inkscape:version="1.2.2 (732a01da63, 2022-12-09, custom)"
   sodipodi:docname="entregas.svg"
   xmlns:inkscape="http://www.inkscape.org/namespaces/inkscape"
   xmlns:sodipodi="http://sodipodi.sourceforge.net/DTD/sodipodi-0.dtd"
   xmlns="http://www.w3.org/2000/svg"
   xmlns:svg="http://www.w3.org/2000/svg">
  <sodipodi:namedview
     id="namedview1728"
     pagecolor="#ffffff"
     bordercolor="#999999"
     borderopacity="1"
     inkscape:showpageshadow="0"
     inkscape:pageopacity="0"
     inkscape:pagecheckerboard="0"
     inkscape:deskcolor="#d1d1d1"
     inkscape:document-units="mm"
     showgrid="false"
     inkscape:zoom="0.5946522"
     inkscape:cx="410.32388"
     inkscape:cy="409.48306"
     inkscape:window-width="1366"
     inkscape:window-height="662"
     inkscape:window-x="0"
     inkscape:window-y="0"
     inkscape:window-maximized="1"
     inkscape:current-layer="layer1" />
  <defs
     id="defs1723" />
  <g
     inkscape:label="Camada 1"
     inkscape:groupmode="layer"
     id="layer1">
    <g
       id="g3359"
       style="fill:#ffffff">
      <path
         style="fill:none;stroke:#ffffff;stroke-width:1.098;stroke-linecap:butt;stroke-linejoin:miter;stroke-dasharray:none;stroke-opacity:1"
         d="m 31.22239,24.727048 c 1.877906,-1.805536 1.541341,1.586194 2.794963,2.659938 2.677804,2.293671 6.008147,-1.274018 6.535402,-1.805851 0.751003,-0.757545 -0.180389,-1.870706 -0.468435,-5.629152 -0.121183,-1.58116 2.269605,-0.14788 3.955706,0.02876 3.356759,0.351739 6.099323,-4.00389 8.908987,-3.351234 0.197486,0.04596 0.137375,1.000483 0.09684,2.260333 -0.01097,0.339738 1.693234,0.653543 1.690558,1.025844 -0.01463,2.0418 -2.28031,4.457597 -0.986284,5.170535 0.594913,0.327772 1.657133,1.309188 2.634406,1.349234 3.559945,0.145823 8.804411,-2.049171 11.65184,-2.049171 1.458877,0 2.419804,0.945628 2.688615,0.820052 1.766293,-0.82512 5.743716,-6.368529 6.459023,-6.406946 1.316023,-0.07067 2.832402,3.685973 3.1934,4.870473 2.307891,7.572894 1.039087,2.703781 -5.629541,8.934386 -0.190121,0.177645 0.60221,0.155745 1.9823,0.06629 1.086221,-0.07056 2.230501,-2.396078 3.852515,-2.486035 3.801011,-0.210882 8.85086,1.91446 12.061089,2.776963 3.307565,0.888638 6.780396,3.277233 10.298916,4.373011 3.51155,1.093621 4.46252,-0.513034 7.62135,0.166442 2.16466,0.465629 3.1577,3.211681 5.63398,4.712547 2.74558,1.664106 5.58316,-0.921684 6.33537,4.841124 0.16795,1.286647 -1.71422,8.392452 -4.70271,9.253124 -2.86585,0.825367 -4.87891,2.979271 -6.09027,5.507172 -1.16086,2.422483 0.32265,6.265505 -0.57531,8.772012 -0.47179,1.316907 -4.13916,14.157552 -5.02377,15.418379 -2.04702,2.917663 -14.505173,3.216209 -18.026302,6.900913 -1.273685,1.332839 -3.183783,1.554249 -3.622124,3.873921 -0.171898,0.90965 0.516684,3.823548 0.413802,4.881868 -0.330087,3.395 -2.030945,3.54979 -3.688743,6.42827 -1.153271,2.00241 -1.331494,4.31292 -3.98731,5.7704 -3.838691,2.10662 0.207026,-0.65394 2.213239,-3.63268 0.967781,-1.4369 -0.405734,-0.50172 -1.038971,-1.22048 -0.562162,-0.63808 1.483031,-1.98915 -1.155958,-0.74214 -0.500059,0.2363 0.62156,1.01602 0.373157,1.43151 -1.142576,1.91101 -2.142501,2.8533 -2.609511,5.0675 -0.351737,1.66778 -0.197755,4.34375 -2.817076,4.13047 -0.546219,-0.0445 0.871541,-2.59464 0.05439,-2.92574 -1.61464,-0.65424 -2.534392,-2.25314 -4.118679,-3.16301 -3.616165,-2.07678 -4.785302,-2.89168 -6.888516,-4.54066 -0.594797,-0.46635 1.69024,-3.31536 4.705081,-5.55913 1.43044,-1.06461 3.360582,-1.25044 4.602603,-2.35949 0.571125,-0.509966 0.591678,-2.578778 -0.27684,-4.096993 -0.342149,-0.59807 -1.630746,-0.471898 -1.855514,-1.097261 -0.367352,-1.022192 0.559919,-2.476484 0.383718,-2.962203 -0.445629,-1.228377 -2.42997,0.228724 -3.057941,-0.390751 -0.70901,-0.699398 -0.08087,-3.407663 -0.908287,-3.646096 -2.420419,-0.697499 -5.088818,-0.137857 -6.491599,-2.505372 -0.632333,-1.067182 1.473875,-9.332901 -0.50597,-12.13336 -2.067643,-2.924663 -4.363539,-0.459527 -6.412881,-3.395696 -0.337412,-0.483416 -0.652818,-3.118836 -1.160087,-5.699604 -0.540598,-2.750401 -0.820509,0.625779 -2.055802,0.670645 -0.722497,0.02629 -3.44369,-3.190389 -4.386142,-3.133949 -2.246597,0.134497 -4.857215,-0.19496 -5.838069,-1.334345 -1.56537,-1.818346 -0.834218,-4.901237 -1.880535,-5.357012 -1.567834,-0.68296 -3.401245,0.771175 -5.751831,1.894313 -1.97251,0.942483 -4.309205,1.651893 -7.158772,0.669769 -1.522308,-0.524675 -0.527938,-3.112814 -0.310756,-4.089994 0.208066,-0.9361 -1.037181,0.390987 -1.588512,0.966326 -1.334729,1.392807 -4.212666,3.053632 -8.025615,-4.580735 -2.554994,-5.115624 9.116533,-11.102594 11.056273,-8.494747 1.079241,-2.409056 0.883748,-5.259796 2.141529,-7.637671 1.286315,-2.431843 -1.929699,-2.600892 -2.149076,-4.511756 -0.07875,-0.686308 3.210796,0.228881 3.309366,-1.115588 0.01762,-0.239646 -2.584039,-1.695579 -2.090449,-2.708231 2.967467,-0.556013 2.571889,1.590014 5.685762,-0.929404 z"
         id="path10813"
         sodipodi:nodetypes="csssssssssscssssssssssssssssssssssssssssssssssssssssssssssssccsscc" />
      <path
         id="path10815"
         style="fill:#ffffff;fill-opacity:1;stroke:none;stroke-width:0.208795;stroke-linecap:butt;stroke-linejoin:miter;stroke-dasharray:none;stroke-opacity:1"
         d="m 35.579844,47.073936 0.738276,2.906786 h 15.160078 c 1.21835,0 2.198944,1.144959 2.198944,2.566981 0,1.422011 -0.980594,2.56697 -2.198944,2.56697 H 37.622033 l 0.639841,2.518811 h 5.732828 c 1.21835,0 2.19932,1.14497 2.19932,2.566969 0,1.422022 -0.98097,2.566532 -2.19932,2.566532 h -4.428914 l 0.729948,2.874104 h 10.862927 c 1.218349,0 2.199309,1.144955 2.199309,2.566965 0,1.422011 -0.98096,2.566531 -2.199309,2.566531 h -9.559389 l 1.797618,7.076973 4.66668,-0.0067 a 6.473417,6.7263727 0 0 1 6.37986,-5.610759 6.473417,6.7263727 0 0 1 6.37911,5.5944 l 4.369478,-0.0056 a 6.473417,6.7263727 0 0 1 6.377589,-5.589106 6.473417,6.7263727 0 0 1 6.376462,5.572758 l 23.072149,-0.02966 a 6.473417,6.7263727 0 0 1 6.37079,-5.543151 6.473417,6.7263727 0 0 1 6.36926,5.526802 l 8.81884,-0.01146 -0.65121,-3.418507 c -1.85577,-6.654288 -7.58624,-14.204103 -13.67898,-19.939674 l -20.420414,0.446752 6.69903,19.351964 H 90.760318 L 79.307909,47.793323 Z m 72.279016,10.08893 c 3.60249,2.913427 5.5121,6.421834 7.06135,10.056671 H 98.378975 l -4.790856,-9.685921 z" />
      <ellipse
         style="fill:#ffffff;fill-opacity:1;stroke:none;stroke-width:0.579272;stroke-linecap:round;stroke-linejoin:round;stroke-miterlimit:4.6;stroke-dasharray:none;paint-order:stroke fill markers"
         id="path10871-9"
         cx="54.443279"
         cy="78.961105"
         rx="5.3639116"
         ry="5.5735121" />
      <ellipse
         style="fill:#ffffff;fill-opacity:1;stroke:none;stroke-width:0.579272;stroke-linecap:round;stroke-linejoin:round;stroke-miterlimit:4.6;stroke-dasharray:none;paint-order:stroke fill markers"
         id="path10871-9-2"
         cx="71.569794"
         cy="78.961105"
         rx="5.3639116"
         ry="5.5735121" />
      <ellipse
         style="fill:#ffffff;fill-opacity:1;stroke:none;stroke-width:0.579272;stroke-linecap:round;stroke-linejoin:round;stroke-miterlimit:4.6;stroke-dasharray:none;paint-order:stroke fill markers"
         id="path10871-9-2-0"
         cx="107.38908"
         cy="78.961105"
         rx="5.3639116"
         ry="5.5735121" />
      <rect
         style="fill:#ffffff;fill-opacity:1;stroke:none;stroke-width:1.13563;stroke-linecap:round;stroke-linejoin:round;stroke-miterlimit:4.6;stroke-dasharray:none;paint-order:stroke fill markers"
         id="rect11022-6"
         width="30.378742"
         height="4.1879435"
         x="22.229153"
         y="50.453747"
         ry="2.0939717" />
      <rect
         style="fill:#ffffff;fill-opacity:1;stroke:none;stroke-width:1.14744;stroke-linecap:round;stroke-linejoin:round;stroke-miterlimit:4.6;stroke-dasharray:none;paint-order:stroke fill markers"
         id="rect11022-9-0"
         width="30.315166"
         height="4.258832"
         x="14.777735"
         y="58.070923"
         ry="2.129416" />
      <rect
         style="fill:#ffffff;fill-opacity:1;stroke:none;stroke-width:1.14725;stroke-linecap:round;stroke-linejoin:round;stroke-miterlimit:4.6;stroke-dasharray:none;paint-order:stroke fill markers"
         id="rect11022-9-3-6"
         width="30.266809"
         height="4.2899261"
         x="21.965727"
         y="66.062943"
         ry="2.144963" />
    </g>
  </g>
</svg>
