<?xml version="1.0" encoding="UTF-8" standalone="no"?>
<!-- Created with Inkscape (http://www.inkscape.org/) -->

<svg
   width="512"
   height="512"
   viewBox="0 0 135.46666 135.46667"
   version="1.1"
   id="svg1726"
   inkscape:version="1.2.2 (732a01da63, 2022-12-09, custom)"
   sodipodi:docname="presente.svg"
   xmlns:inkscape="http://www.inkscape.org/namespaces/inkscape"
   xmlns:sodipodi="http://sodipodi.sourceforge.net/DTD/sodipodi-0.dtd"
   xmlns="http://www.w3.org/2000/svg"
   xmlns:svg="http://www.w3.org/2000/svg">
  <sodipodi:namedview
     id="namedview1728"
     pagecolor="#ffffff"
     bordercolor="#999999"
     borderopacity="1"
     inkscape:showpageshadow="0"
     inkscape:pageopacity="0"
     inkscape:pagecheckerboard="0"
     inkscape:deskcolor="#d1d1d1"
     inkscape:document-units="mm"
     showgrid="false"
     inkscape:zoom="0.2973261"
     inkscape:cx="312.78788"
     inkscape:cy="485.99837"
     inkscape:window-width="1366"
     inkscape:window-height="662"
     inkscape:window-x="0"
     inkscape:window-y="0"
     inkscape:window-maximized="1"
     inkscape:current-layer="layer1" />
  <defs
     id="defs1723" />
  <g
     inkscape:label="Camada 1"
     inkscape:groupmode="layer"
     id="layer1">
    <g
       id="g9345"
       transform="translate(-61.243361,-3.3062403)"
       style="fill:#ffffff;stroke:none">
      <path
         id="path8609"
         style="color:#000000;fill:#ffffff;-inkscape-stroke:none;fill-opacity:1;stroke:none"
         d="m 131.63486,45.798755 -15.53549,8.969478 -0.19688,-0.113688 -0.19792,0.341581 -5.12011,2.956409 -0.24287,-0.140043 -0.24288,0.420646 -15.999027,9.237679 0.0057,0.36897 0.445451,35.292933 19.242236,11.10837 v 0.52451 h 0.90848 l 13.21469,7.629 35.76371,-20.64836 V 64.300985 l -13.73249,-7.928715 -0.01,-0.01705 -0.01,0.0057 -4.89944,-2.828768 -0.18087,-0.313159 -0.18087,0.104386 z m 0,1.460893 11.76776,6.793383 -14.27097,8.239291 -11.76724,-6.793901 z m 13.03331,7.524088 3.99614,2.306836 -14.272,8.23929 -3.9951,-2.306835 z m -28.56725,1.444356 11.76673,6.793901 -4.25142,2.454631 -11.76724,-6.793901 z m 33.82688,1.592151 11.86853,6.851262 -14.58774,8.057906 -11.55175,-6.669361 z m -39.34385,1.593185 11.76724,6.7939 -13.72578,7.924581 -12.84521,-6.171716 z m 18.54925,4.33927 3.99511,2.306836 -4.25142,2.45463 -3.99511,-2.306836 z m 33.28273,2.021065 v 35.241777 l -14.75569,8.51938 V 73.924687 Z m -28.0231,1.015959 11.52333,6.653857 -4.34444,2.399854 -11.42979,-6.599081 z m -10.77609,0.147794 3.99563,2.306836 -13.24519,7.646562 -4.36097,-2.095479 z m -28.231348,2.23604 12.548068,6.028572 v 34.195332 l -12.126905,-7.00113 z m 33.492008,0.800984 11.40138,6.583061 -12.37651,6.836792 -12.15326,-5.839437 z m 17.51883,4.648295 v 35.641755 l -4.29638,2.48047 V 76.996334 Z m -37.19721,1.187525 4.59403,2.2071 v 34.76274 l -4.59403,-2.65204 z m 31.63683,1.884639 v 35.779731 l -12.17755,7.03058 V 84.42172 Z m -25.77724,0.930693 12.33568,5.92677 v 36.079968 l -12.33568,-7.12153 z" />
      <path
         id="path8656"
         style="color:#000000;fill:#ffffff;stroke-linecap:round;-inkscape-stroke:none;fill-opacity:1;stroke:none"
         d="m 98.006888,37.881266 c -0.818871,-0.0078 -1.620018,0.05531 -2.398303,0.198954 -2.075426,0.383056 -3.991416,1.414229 -5.370731,3.131075 -1.379316,1.716846 -2.211797,4.036111 -2.496489,6.933427 -0.567616,5.776661 1.61413,9.873744 5.201233,12.13466 3.587105,2.260916 8.276442,2.937917 13.130982,3.23081 4.85454,0.292894 9.91222,0.153875 14.1211,0.415996 0.0732,0.0046 0.14388,0.01061 0.21652,0.0155 -0.85467,0.139134 -1.71094,0.306489 -2.56005,0.505913 -4.44362,1.043646 -8.74485,2.932505 -11.32851,6.381006 -1.69234,2.25884 -2.25216,4.881631 -2.80241,7.222298 -0.55026,2.340665 -1.09498,4.381183 -2.25206,5.769673 -6.078924,7.294718 -16.528264,5.90695 -21.572321,-1.642793 a 1.5325,1.5325 0 0 0 -2.124935,-0.423747 1.5325,1.5325 0 0 0 -0.422196,2.124935 c 6.060217,9.070691 19.146025,10.69889 26.474862,1.904276 1.75875,-2.110501 2.3279,-4.678446 2.88097,-7.031095 0.55308,-2.35265 1.08703,-4.50542 2.27118,-6.085933 1.90189,-2.53854 5.52429,-4.283033 9.5746,-5.234306 3.63559,-0.853871 7.56444,-1.082258 10.65827,-0.926042 a 1.5324999,1.5324999 0 0 0 1.79265,0.230477 c 0.71896,-0.400565 1.32386,-0.431504 2.16421,-0.274919 0.84035,0.156585 1.84549,0.560987 2.97036,0.962732 5.9398,2.121352 8.71832,5.447745 11.41016,9.109522 2.69184,3.661776 5.25255,7.743548 10.44381,10.345621 4.50389,2.257543 10.04873,2.383082 14.62856,0.546737 4.57985,-1.836345 8.24446,-5.907907 8.24446,-11.638566 a 1.5324999,1.5324999 0 0 0 -1.53324,-1.531173 1.5324999,1.5324999 0 0 0 -1.53324,1.531173 c 0,4.476221 -2.60189,7.302532 -6.31848,8.792745 -3.71658,1.490211 -8.49799,1.371688 -12.11502,-0.441317 -4.40784,-2.209397 -6.57107,-5.644466 -9.34775,-9.421647 -2.77668,-3.77718 -6.21053,-7.809291 -12.84779,-10.17974 -0.0982,-0.03508 -0.20219,-0.07471 -0.30231,-0.111621 0.95936,-0.145434 2.00343,-0.254556 3.11867,-0.324012 4.20888,-0.26212 9.26863,-0.123101 14.12317,-0.415995 4.85454,-0.292893 9.54389,-0.969895 13.13098,-3.23081 3.58711,-2.260917 5.76884,-6.357999 5.20123,-12.13466 -0.28469,-2.897316 -1.11717,-5.218648 -2.49648,-6.935494 -1.37931,-1.716847 -3.29531,-2.745952 -5.37074,-3.129008 -1.0377,-0.191529 -2.11575,-0.241701 -3.22305,-0.169499 -3.32191,0.216606 -6.91346,1.536413 -10.51926,3.453019 -8.24546,4.382748 -16.63781,11.996123 -20.69228,19.500619 -4.01746,-7.561334 -12.4763,-15.259254 -20.78632,-19.676319 -3.60581,-1.916607 -7.19736,-3.234863 -10.519256,-3.451469 -0.276825,-0.01805 -0.551798,-0.0284 -0.824756,-0.03101 z m -0.353983,3.381189 c 0.305424,-0.0023 0.622133,0.0095 0.948262,0.03462 2.609033,0.201311 5.839903,1.26932 9.169463,3.039091 7.18293,3.817978 14.55279,10.760012 18.4397,17.015499 -1.77257,-0.428334 -3.72142,-0.65302 -5.80688,-0.782898 -4.44304,-0.276704 -9.48097,-0.135695 -14.12679,-0.415996 -4.64582,-0.280299 -8.858992,-1.029626 -11.538823,-2.718697 -2.67983,-1.68907 -4.129615,-4.066601 -3.648873,-8.959143 0.239489,-2.437285 0.907626,-4.081042 1.771469,-5.156274 0.863841,-1.075232 1.935529,-1.665231 3.359484,-1.928048 0.444986,-0.08213 0.923947,-0.124364 1.432988,-0.128157 z m 64.874075,0.174149 c 0.50904,0.0038 0.98852,0.04603 1.4335,0.128158 1.42396,0.262815 2.49512,0.854366 3.35897,1.929598 0.86384,1.075232 1.53043,2.718989 1.76992,5.156274 0.48074,4.892542 -0.96697,7.268006 -3.64681,8.957076 -2.67982,1.689071 -6.89301,2.438398 -11.53883,2.718697 -4.64581,0.280301 -9.68581,0.139292 -14.12885,0.415996 -2.08541,0.129874 -4.03228,0.3551 -5.80481,0.783414 3.88723,-6.255037 11.25743,-13.198395 18.4397,-17.016015 3.32955,-1.769772 6.56043,-2.837782 9.16946,-3.039091 0.32613,-0.02516 0.64232,-0.03638 0.94775,-0.03411 z" />
      <path
         sodipodi:type="star"
         style="fill:#ffffff;fill-opacity:1;stroke:none;stroke-width:1.265;stroke-linecap:round;stroke-linejoin:round;stroke-miterlimit:4.6;stroke-dasharray:none;paint-order:stroke fill markers"
         id="path9298"
         inkscape:flatsided="false"
         sodipodi:sides="4"
         sodipodi:cx="154.70901"
         sodipodi:cy="16.010563"
         sodipodi:r1="31.657234"
         sodipodi:r2="16.37882"
         sodipodi:arg1="1.2328578"
         sodipodi:arg2="2.018256"
         inkscape:rounded="0"
         inkscape:randomized="0"
         d="M 165.20475,45.877268 147.62228,30.776875 124.84231,26.506295 139.9427,8.9238289 144.21328,-13.856142 161.79575,1.2442513 184.57572,5.514831 169.47533,23.097297 Z"
         transform="matrix(0.54044343,0,0,0.54044343,73.730211,22.560308)" />
      <path
         sodipodi:type="star"
         style="fill:#ffffff;fill-opacity:1;stroke:none;stroke-width:1.265;stroke-linecap:round;stroke-linejoin:round;stroke-miterlimit:4.6;stroke-dasharray:none;paint-order:stroke fill markers"
         id="path9298-6"
         inkscape:flatsided="false"
         sodipodi:sides="4"
         sodipodi:cx="154.70901"
         sodipodi:cy="16.010563"
         sodipodi:r1="31.657234"
         sodipodi:r2="16.37882"
         sodipodi:arg1="1.2328578"
         sodipodi:arg2="2.018256"
         inkscape:rounded="0"
         inkscape:randomized="0"
         d="M 165.20475,45.877268 147.62228,30.776875 124.84231,26.506295 139.9427,8.9238289 144.21328,-13.856142 161.79575,1.2442513 184.57572,5.514831 169.47533,23.097297 Z"
         transform="matrix(0.3770451,0,0,0.3770451,33.775886,66.350778)" />
      <path
         sodipodi:type="star"
         style="fill:#ffffff;fill-opacity:1;stroke:none;stroke-width:1.265;stroke-linecap:round;stroke-linejoin:round;stroke-miterlimit:4.6;stroke-dasharray:none;paint-order:stroke fill markers"
         id="path9298-2"
         inkscape:flatsided="false"
         sodipodi:sides="4"
         sodipodi:cx="154.70901"
         sodipodi:cy="16.010563"
         sodipodi:r1="31.657234"
         sodipodi:r2="16.37882"
         sodipodi:arg1="1.2328578"
         sodipodi:arg2="2.018256"
         inkscape:rounded="0"
         inkscape:randomized="0"
         d="M 165.20475,45.877268 147.62228,30.776875 124.84231,26.506295 139.9427,8.9238289 144.21328,-13.856142 161.79575,1.2442513 184.57572,5.514831 169.47533,23.097297 Z"
         transform="matrix(0.25476078,0,0,0.25476078,113.36559,115.50025)" />
    </g>
  </g>
</svg>
